<?xml version="1.0" encoding="UTF-8"?>
<svg width="45px" height="54px" viewBox="0 0 45 54" version="1.1" xmlns="http://www.w3.org/2000/svg" xmlns:xlink="http://www.w3.org/1999/xlink">
    <!-- Generator: Sketch 58 (84663) - https://sketch.com -->
    <title>Group 34</title>
    <desc>Created with Sketch.</desc>
    <defs>
        <polygon id="path-1" points="6.68898218e-05 0.178340426 44.707268 0.178340426 44.707268 43.9039761 6.68898218e-05 43.9039761"></polygon>
    </defs>
    <g id="Page-1" stroke="none" stroke-width="1" fill="none" fill-rule="evenodd">
        <g id="Session-Summary" transform="translate(-33.000000, -1862.000000)">
            <g id="Group-4" transform="translate(0.000000, 401.000000)">
                <g id="Group-10-Copy" transform="translate(0.000000, 1430.000000)">
                    <g id="Group-34" transform="translate(33.000000, 31.000000)">
                        <g id="Group-3">
                            <mask id="mask-2" fill="white">
                                <use xlink:href="#path-1"></use>
                            </mask>
                            <g id="Clip-2"></g>
                            <path d="M15.3526082,39.0309489 C15.3725567,39.1390766 15.3925052,39.2472043 15.4129175,39.3553319 C15.6597216,39.8599277 15.1568351,39.9427787 14.9513196,40.1927362 C14.5124536,40.7778426 13.9886907,41.2679277 13.3688969,41.6536298 C13.0687423,41.8399277 12.7727629,42.0360553 12.5593608,42.3248638 C12.2615258,42.7255447 12.355701,43.0873745 12.8275052,43.2423106 C13.4941546,43.4618426 14.1696186,43.6584383 14.8497216,43.833034 C15.2463711,43.9355447 15.6527629,43.9238426 16.0600825,43.8180553 C16.5453402,43.6921404 17.0305979,43.6420553 17.5441546,43.7286511 C18.2738969,43.8517574 18.5763711,43.5746511 18.6329691,42.8378851 C18.6691546,42.3716723 18.6886392,41.9040553 18.7183299,41.4373745 C18.7433814,41.039034 18.6863196,40.6439702 19.1177629,40.3546936 C19.4053918,40.1623106 19.4596701,39.0239277 19.2425567,38.7201404 C19.0119897,38.3971617 19.0500309,38.1458 19.3079691,37.8789915 C19.6081237,37.5686511 19.6109072,37.1558 19.6058041,36.771034 C19.5747216,34.3337149 19.8410103,31.9165234 20.0363196,29.4932468 C20.084567,28.8922255 20.3800825,28.4723532 20.7043608,28.0566936 C21.2522474,27.3531617 21.8353918,26.6735021 22.6054948,26.1955872 C23.1529175,25.8552894 23.7235361,25.7186085 24.3493608,25.9676298 C25.3263711,26.3575447 26.3168351,26.562566 27.3889485,26.4268213 C28.2601856,26.3168213 28.5102371,26.6552468 28.460134,27.5478851 C28.3956495,28.6872043 28.3371959,29.8288638 28.4912165,30.9663106 C28.5450309,31.3599702 28.6568351,31.7269489 28.9954948,31.9904809 C29.2603918,32.1959702 29.2775567,32.5184809 29.2385876,32.8119702 C29.0933814,33.8983957 29.4751856,34.6960128 30.4331753,35.2268213 C30.7885361,35.423417 30.9676082,35.7833745 31.1109588,36.1531617 C31.509,37.1824809 32.5078144,37.6159277 33.5061649,37.1899702 C33.6258557,37.1389489 33.747866,37.0949489 33.8638454,37.0364383 C34.2577113,36.8379702 34.7290515,36.6975447 34.7791546,36.1592468 C34.8338969,35.5769489 34.5281753,35.1486511 34.0647216,34.8556298 C33.6114742,34.5696298 33.2890515,34.1755021 32.9786907,33.7532894 C32.7388454,33.427034 32.6725052,33.0455447 32.5463196,32.6766936 C32.0638454,31.2686936 32.2568351,29.7890766 32.0605979,28.3511191 C31.8606495,26.887417 31.8583299,25.4031191 31.9047216,23.9235021 C31.9228144,23.3351191 31.8026598,22.7682681 31.6361134,22.2135872 C31.4050825,21.4459277 30.856732,21.0269915 30.0940515,20.8444383 C29.3044639,20.6553319 28.4721959,20.7452043 27.6974536,20.4315872 C27.4381237,20.3267362 27.3026598,20.2906936 27.3615773,19.9555447 C27.481732,19.2716723 27.3908041,18.6088638 26.9208557,18.0560553 C26.8071959,17.9231191 26.8090515,17.7836298 26.823433,17.6380553 C26.9208557,16.6340128 26.9895155,15.6238851 27.312866,14.6591617 C27.7308557,13.4163957 28.5946701,13.1294596 29.6858041,13.8095872 C30.3654433,14.2332043 31.0353402,14.7686936 31.936268,14.484566 C31.9947216,14.4663106 32.0912165,14.4948638 32.1408557,14.5365234 C33.3437938,15.5513319 34.8301856,15.9131617 36.2729691,16.3817149 C37.8210619,16.8844383 39.3218351,17.5163532 40.8281753,18.1318851 C41.2452371,18.3018 41.5968866,18.5634596 41.8775567,18.9327787 C42.5270412,19.7884383 43.6455464,19.7837574 44.4657526,19.5019702 C44.7000309,19.4214596 44.7714742,19.3184809 44.6471443,19.0483957 C44.3024536,18.3027362 44.0899794,17.4995021 43.529567,16.8544809 C43.2359072,16.5165234 42.9640515,16.5338426 42.6606495,16.7351191 C42.3205979,16.9612043 42.0371443,16.9064383 41.6799278,16.7398 C39.5635361,15.7530766 37.5570928,14.5515021 35.4560103,13.5366936 C34.8756495,13.2563106 34.1992577,13.2272894 33.6458041,12.8663957 C33.3785876,12.6927362 33.0561649,12.6131617 33.0009588,12.1820553 C32.9582784,11.8525234 32.5463196,11.7748213 32.3241031,11.5538851 C31.7154433,10.9491191 31.0098247,10.4609064 30.3431753,9.92682128 C29.2358041,9.0398 27.8616804,9.01077872 26.5673505,8.75801277 C25.4701856,8.54362979 25.4442062,8.58856596 25.957299,7.52788511 C26.1609588,7.10754468 25.9633299,6.72324681 25.9591546,6.32350213 C25.9540515,5.77865106 25.8691546,5.23145957 25.6265258,4.74699149 C25.1468351,3.7850766 24.2083299,3.3951617 23.0271959,3.60673617 C21.8080206,3.8258 21.254567,4.40060851 21.0277113,5.53337447 C20.9414227,5.96822553 20.9469897,6.41197021 20.709,6.85711915 C20.512299,7.22362979 20.3605979,7.20069362 20.101732,7.14218298 C19.4851856,7.0031617 18.8825567,7.16511915 18.2762165,7.21005532 C17.8229691,7.24328936 17.3961649,7.21754468 16.9828144,6.99614043 C16.8097732,6.90392766 16.591732,6.84775745 16.3968866,6.85384255 C15.8220928,6.87209787 15.2621443,6.91703404 14.7546186,6.53226809 C14.5347216,6.36609787 14.2624021,6.59826809 13.9979691,6.56971489 C12.9574021,6.45784255 11.911732,6.49201277 10.9630206,5.85775745 C9.96281443,5.18933191 8.73204124,5.24550213 7.59729897,5.00397021 C6.40363918,4.74933191 5.18910309,4.59486383 4.0246701,4.19418298 C3.37750515,3.97184255 3.04348454,3.47848085 2.83472165,2.89665106 C2.71503093,2.56337447 2.55265979,2.27550213 2.30260825,2.06486383 C1.7268866,1.57945957 1.27595876,0.997161702 0.872814433,0.368991489 C0.812505155,0.274906383 0.748948454,0.143842553 0.627402062,0.186438298 C0.476164948,0.239331915 0.512350515,0.383970213 0.531371134,0.521587234 C0.608381443,1.0851617 0.719257732,1.62065106 1.0968866,2.08686383 C1.28198969,2.31528936 1.35575258,2.64201277 1.29080412,3.09231064 C0.937762887,2.65090638 0.95585567,2.13928936 0.60142268,1.84860851 C0.450649485,1.72456596 0.324927835,1.46290638 0.10642268,1.59397021 C-0.0763608247,1.70350213 0.0131752577,1.95158723 0.103175258,2.10605532 C0.805082474,3.30622553 1.08528866,4.86869362 2.77673196,5.22069362 C3.26198969,5.32133191 3.72080412,5.54367234 4.19631959,5.69533191 C5.56023711,6.13018298 6.84296907,6.75414043 8.11642268,7.39682128 C9.32492784,8.00626809 10.629,8.25669362 11.9377113,8.5024383 C12.1743093,8.54690638 12.4095155,8.60073617 12.6475052,8.63631064 C13.5335876,8.76924681 14.1788969,9.13997021 14.3848763,10.1243532 C14.4966804,10.6584383 14.8715258,11.0151191 15.4862165,11.0553745 C15.9102371,11.0829915 16.3129175,11.2435447 16.7012165,11.4298426 C17.2310103,11.6835447 17.4611134,12.0392894 17.3636907,12.675417 C17.1238454,14.2472468 17.019,15.8368638 16.962866,17.4250766 C16.9053402,19.0591617 17.2356495,20.6595447 17.4991546,22.2627362 C17.5051856,22.2997149 17.5126082,22.3366936 17.5246701,22.3722681 C17.6448247,22.7462681 17.9296701,23.070183 18.0238454,23.4053319 C18.087866,23.6337574 17.5112165,23.9866936 17.4754948,24.3124809 C17.2982784,25.919417 16.3992062,27.3517574 16.4813196,29.0345234 C16.5323505,30.0853745 16.2906495,31.1502681 16.180701,32.2086085 C16.1742062,32.349034 16.1681753,32.4894596 16.1616804,32.6298851 C16.1556495,33.0502255 16.1505464,33.4700979 16.1445155,33.8899702 C16.1482268,33.9658 16.1514742,34.0420979 16.1547216,34.1183957 C16.1918351,34.4320128 16.2382268,34.7446936 16.2628144,35.0592468 C16.310134,35.6574596 16.2925052,36.2402255 15.9645155,36.7832043 C15.5854948,37.4109064 15.4467835,38.1270766 15.2992577,38.8362255 C15.3168866,38.9012894 15.3345155,38.9658851 15.3526082,39.0309489" id="Fill-1" fill="#FFFFFF" mask="url(#mask-2)"></path>
                        </g>
                        <path d="M35.6639161,44.5885342 C35.1723766,44.7618113 34.690173,44.9530614 34.2191727,45.1788747 C33.8242606,45.3687422 33.4316825,45.566444 33.0335029,45.7507814 C32.7548238,45.8798175 32.4700763,46.0056278 32.1983992,46.1558627 C31.9659332,46.2848989 31.7054593,46.3646248 31.4566553,46.4660104 C31.0706124,46.623158 30.6841027,46.7793839 30.2980598,46.9356098 C29.9241537,47.0872273 29.549314,47.2356189 29.1772751,47.3900015 C28.7608903,47.5623569 28.3468394,47.7407033 27.9313882,47.9149021 C27.666713,48.0255046 27.3997039,48.130116 27.1354956,48.2416401 C26.7494527,48.4047787 26.3573414,48.554092 25.9722321,48.7195348 C25.6986878,48.8370499 25.4214091,48.9541041 25.1375953,49.0536463 C24.8435118,49.1573361 24.5592311,49.2863722 24.2707492,49.404809 C23.9986053,49.5163331 23.7306626,49.6361524 23.4552511,49.7416855 C23.0804114,49.8859295 22.7223765,50.0748753 22.3447359,50.2099025 C22.0977992,50.2983844 21.8615988,50.4094477 21.6160625,50.5006947 C21.1978104,50.6564598 20.792162,50.8435622 20.3729763,50.9974839 C20.022877,51.1260592 19.6564396,51.2122369 19.3077407,51.3431165 C19.1322242,51.4090171 18.9520397,51.4707701 18.7760564,51.5274539 C18.5062465,51.6145533 18.258843,51.7435894 17.9983691,51.8472792 C17.7019516,51.9647943 17.4349425,52.1389931 17.1585974,52.295219 C16.8323048,52.4795564 16.5312193,52.7016829 16.2123955,52.8980022 C15.8482922,53.122433 15.4725189,53.3261258 15.0944116,53.5201409 C14.7499138,53.6971048 14.386744,53.8514873 13.9969668,53.9247614 C13.654803,53.9888187 13.3173072,54.040894 12.9681414,53.9547162 C12.5400866,53.8487222 12.2282648,53.6238306 12.0793559,53.2044631 C12.0410783,53.1063035 12.1171666,52.9809541 12.0042012,52.9003065 C12.0028008,52.8818727 12.0014004,52.8638998 12,52.8454661 C12.0896254,52.8168938 12.0718871,52.7214992 12.0695531,52.6763365 C12.0522815,52.3643455 12.1456413,52.0878395 12.2847475,51.8117943 C12.5550242,51.2753725 12.997083,50.9449477 13.5469724,50.7315772 C13.7939091,50.6357218 14.0422463,50.5430923 14.2905834,50.4509236 C14.5594597,50.3513814 14.8297364,50.2550651 15.098146,50.1550621 C15.3688895,50.0536765 15.6503693,49.9716464 15.9061753,49.8407669 C16.2936186,49.6435259 16.7048686,49.5006644 17.0941791,49.3094144 C17.3481179,49.1845258 17.6141934,49.0840619 17.8746673,48.9711553 C18.2191651,48.8209203 18.5580612,48.6582426 18.9081606,48.5204504 C19.2540588,48.3849625 19.5700818,48.1858781 19.9281168,48.0785016 C20.1400436,48.015366 20.2987553,47.8439323 20.5218853,47.7969262 C20.759486,47.7471551 20.9672117,47.6139714 21.1805389,47.5088991 C21.438212,47.3817063 21.7028871,47.261887 21.9666286,47.1545105 C22.3965507,46.9798508 22.8045331,46.761411 23.2344551,46.5895164 C23.6326348,46.4300646 24.0284805,46.2637001 24.4149902,46.0793627 C24.6684621,45.9581609 24.9373384,45.8701398 25.1852088,45.7411037 C25.3765964,45.6415615 25.5675173,45.5484711 25.7729089,45.477962 C26.030582,45.3890193 26.2779856,45.2682783 26.5272563,45.1595192 C27.0201962,44.9443053 27.4935306,44.6839288 27.9729333,44.4382993 C28.2791535,44.2811516 28.5811726,44.1166305 28.8855256,43.9571787 C29.2762365,43.7530251 29.6688146,43.5539407 30.081465,43.3935672 C30.3456734,43.2912599 30.6150165,43.2064647 30.8876272,43.1336515 C31.2083182,43.0474738 31.5402124,43.0078412 31.871173,43.0013894 C32.2408779,42.9944768 32.61245,43.014293 32.9816882,43.0401003 C33.30518,43.0622207 33.6291386,43.0972448 33.948896,43.1483985 C34.2971282,43.2036997 34.6425595,43.2806605 34.9870573,43.3548563 C35.2405292,43.4096967 35.4940012,43.4654588 35.7171312,43.6087811 C35.8697745,43.7064799 35.9155208,43.8318293 35.8571709,43.9968112 C35.817493,44.109257 35.7726803,44.2235462 35.9402612,44.3005071 C36.0247518,44.3396788 36.021951,44.4088053 35.9169212,44.4756276 C35.8347646,44.5286246 35.7031272,44.4604197 35.6639161,44.5885342" id="Fill-4" fill="#FFFFFF"></path>
                        <path d="M14.8201665,48.1462142 C14.8563359,48.1117701 14.9047182,48.0782697 14.9028393,48.0150436 C14.9009604,47.9565358 14.8662002,47.9164297 14.8051351,47.9315285 C14.7468884,47.9461554 14.7060218,47.9928672 14.7050823,48.0546779 C14.7041428,48.1174322 14.7591014,48.1301718 14.8201665,48.1462142 M15.2401065,48.5774731 C15.0968384,48.6336217 15.0226208,48.7756446 14.8737159,48.786025 C14.8300309,48.7893279 14.7797696,48.7959336 14.7877551,48.8586879 C14.7938616,48.9101181 14.8356677,48.9233295 14.8817014,48.9351255 C15.0409404,48.9761753 15.2311816,48.8445328 15.2401065,48.5774731 M15.2852008,48.0674175 C15.2762759,47.9598387 15.248092,47.872077 15.1668284,47.8725488 C15.0648967,47.8730207 15.1391143,47.9702191 15.1198553,48.0202338 C15.1085817,48.048544 15.0944898,48.0754387 15.0841557,48.1037489 C15.0587902,48.1721653 15.0151051,48.2585114 15.1038844,48.2967302 C15.2119226,48.343442 15.2344698,48.2382224 15.2621839,48.1655595 C15.2776851,48.1259252 15.2819126,48.0825163 15.2852008,48.0674175 M27.6771884,41.6188231 C27.8063646,41.5999496 27.7631493,41.4815186 27.7819385,41.4102712 C27.8101224,41.2989177 27.7081907,41.2795724 27.6302152,41.2687202 C27.5447241,41.2564524 27.4676881,41.3059953 27.483659,41.3899822 C27.5024483,41.4900117 27.553649,41.5905129 27.6771884,41.6188231 M27.7654979,42.4445376 C27.8171684,42.4454813 27.8397155,42.4105654 27.8622626,42.3704592 C27.9252066,42.2572184 27.9482235,42.1387873 27.9172212,42.0113914 C27.9064174,41.9684542 27.9031293,41.917024 27.8420642,41.9288199 C27.7936818,41.9382567 27.7946213,41.986384 27.8026067,42.0203563 C27.8275025,42.1298224 27.7960305,42.1972951 27.6828252,42.2307955 C27.6391401,42.244007 27.5907578,42.2831694 27.6175325,42.3454519 C27.6443072,42.4082062 27.6992658,42.4360446 27.7654979,42.4445376 M14.955919,47.5243332 C14.9310232,47.470072 14.9963159,47.3530565 14.8577451,47.354472 C14.7713145,47.3554157 14.5336303,47.5644394 14.5646326,47.5818973 C14.6543513,47.6333276 14.7591014,47.669659 14.8624424,47.6852296 C14.9770569,47.7031594 14.9667228,47.6116231 14.955919,47.5243332 M35.8669577,44.5456272 C35.9064152,44.4144565 36.0388795,44.4842884 36.1215522,44.4300271 C36.2267721,44.3616108 36.2300602,44.2913071 36.144569,44.251201 C35.9764052,44.1724042 36.0214994,44.0553887 36.0614266,43.9397886 C36.120143,43.7713429 36.0741093,43.6430032 35.9205071,43.542502 C35.6955057,43.3957607 35.4404415,43.3391403 35.1853773,43.2825199 C34.8387154,43.2065541 34.4915838,43.1277574 34.141164,43.071137 C33.8189282,43.0187631 33.4934043,42.9833753 33.1678803,42.9602553 C32.7963227,42.9343043 32.4224164,42.9135435 32.050389,42.920621 C31.7173493,42.9272267 31.3833702,42.9678047 31.0601949,43.0560382 C30.7858717,43.1305884 30.5153063,43.2174064 30.2494383,43.3221542 C29.8341956,43.4863534 29.4391514,43.6901869 29.0459861,43.8992107 C28.7397211,44.0624662 28.4353351,44.2313838 28.1276609,44.3918083 C27.6452466,44.6432974 27.1689389,44.910357 26.6724326,45.130233 C26.421596,45.2415865 26.173108,45.3652078 25.9133465,45.4562723 C25.7071343,45.5284633 25.5150141,45.6237744 25.3219545,45.7256911 C25.072527,45.8578055 24.8024314,45.9479263 24.5473672,46.0720194 C24.1584295,46.2607541 23.7596274,46.4310872 23.3594161,46.5943428 C22.9267934,46.7703379 22.516248,46.9939886 22.0836253,47.1728148 C21.8177572,47.2827528 21.5518892,47.4054304 21.2921276,47.5361292 C21.0774603,47.6432361 20.8688995,47.779597 20.6293364,47.8310272 C20.4052745,47.8791546 20.2455658,48.054206 20.0323077,48.1188477 C19.6720236,48.2287857 19.3535456,48.4326192 19.0059442,48.5713392 C18.6536456,48.7124185 18.3126205,48.8789769 17.9654889,49.0327957 C17.7038484,49.1488676 17.4356317,49.2512562 17.1800978,49.3791239 C16.7883417,49.5749362 16.3749779,49.7212057 15.984631,49.9236237 C15.7276879,50.0571535 15.4444397,50.1411405 15.1719955,50.2449446 C14.9018998,50.347805 14.6299253,50.4459471 14.3593599,50.5478638 C14.108993,50.6422312 13.8595655,50.7370704 13.6110776,50.8352125 C13.0577338,51.053673 12.6128981,51.39198 12.3409235,51.9411981 C12.2009435,52.2243002 12.1069972,52.5069305 12.1243773,52.826364 C12.1267259,52.872604 12.1445757,52.9707461 12.0539175,53 C11.9073613,52.4026545 12.0731765,51.8713662 12.3869572,51.3665008 C12.6114889,51.0055456 12.9478166,50.810677 13.332057,50.6672386 C13.587591,50.5719275 13.8299725,50.4417005 14.0808091,50.3336499 C14.4913545,50.1571829 14.9145826,50.0071388 15.3124452,49.80708 C15.6962159,49.613155 16.1011244,49.4668856 16.4801978,49.2658831 C16.4971081,49.2569182 16.5144882,49.2493688 16.5299893,49.2385166 C16.6009188,49.1856708 16.7629762,49.2182276 16.7479448,49.1054586 C16.728216,48.9615483 16.6488314,48.8138634 16.5173066,48.7312919 C16.4416798,48.6836364 16.3510216,48.6647629 16.2589542,48.7728136 C16.030195,49.0403451 15.7525836,49.2153966 15.3721011,49.1233884 C15.1724652,49.0757328 14.9639044,49.0889443 14.763329,49.0257181 C14.2649439,48.8681246 13.9798168,48.1481016 14.2508519,47.6989129 C14.3213116,47.5818973 14.4293499,47.4865863 14.5270541,47.397881 C14.8384861,47.1152507 15.2067556,47.0543837 15.6205891,47.1506385 C15.878002,47.2105617 16.0658946,47.3667397 16.2664699,47.5097063 C16.3665228,47.5814255 16.3900093,47.7234484 16.411617,47.8267807 C16.4463771,47.9947546 16.5285801,48.0933685 16.6648023,48.1693342 C16.5943425,48.2240673 16.3298837,47.9735219 16.4402706,48.3132445 C16.4426193,48.320322 16.4275879,48.3325898 16.4214813,48.3429702 C16.3045182,48.5477474 16.3383389,48.6090862 16.5764927,48.6463613 C16.6962743,48.6652348 16.8061915,48.6841082 16.7850536,48.8681246 C16.7643854,49.0445916 16.8836972,49.1616071 17.0006603,49.1148953 C17.2998793,48.9945769 17.5962799,48.8648218 17.8715426,48.6831646 C17.5131374,48.6864674 17.1453376,48.780363 16.8169953,48.5250992 C16.9038956,48.4925425 16.9691883,48.52274 17.034481,48.5392543 C17.2538456,48.5935156 17.4750892,48.6284315 17.7000906,48.589269 C17.809538,48.5703956 17.9476391,48.5817196 17.9744138,48.4203514 C18.0364184,48.424598 18.0988927,48.4236543 18.1599578,48.4335629 C18.3755645,48.4694225 18.5418495,48.4198796 18.6813598,48.227842 C18.8744194,47.9612542 19.1703503,47.8678305 19.4860099,47.8862321 C19.7222848,47.8999154 19.8993736,47.7696884 20.0952517,47.6923072 C20.4066837,47.5691577 20.7134184,47.4299659 21.0065309,47.2700132 C21.2944763,47.1124197 21.6077872,47.0152213 21.8957327,46.8585714 C22.007059,46.7977045 22.1282498,46.7391967 22.2475616,46.6972032 C22.6834724,46.5443281 23.0625458,46.2772684 23.4853042,46.0993859 C23.7662036,45.9809549 24.043815,45.8545026 24.3200171,45.7252193 C24.7066062,45.5435621 25.0861492,45.3458625 25.4774356,45.1750575 C25.7433037,45.0589857 25.9974284,44.9179064 26.276449,44.8287293 C26.4272328,44.7806019 26.5582879,44.6796288 26.706723,44.6130998 C27.160014,44.4092663 27.6071984,44.1922213 28.0581407,43.9831976 C28.3390401,43.8534425 28.65423,43.7548286 28.8496383,43.4806914 C28.8735946,43.6345102 28.9666015,43.568453 29.0384704,43.5349526 C29.2766243,43.4231273 29.4880035,43.2579844 29.7440071,43.1791876 C29.8257404,43.1541803 29.8760017,43.1003909 29.7684332,43.0244251 C29.6373781,42.9305296 29.5218241,42.8120985 29.3832533,42.7318863 C29.2930649,42.6799842 29.1526151,42.5808985 29.0718213,42.6875336 C28.9717685,42.8191761 28.8557448,42.9607271 28.8472896,43.1452154 C28.7697839,43.137666 28.7157648,43.1919272 28.6659733,43.2320333 C28.3291758,43.5042832 27.973589,43.4811632 27.6015616,43.3202668 C27.4418529,43.2513786 27.2713403,43.2079697 27.1139803,43.1348349 C26.9265574,43.048017 26.827444,42.8644724 26.7729552,42.6875336 C26.6841759,42.3973539 26.6531736,42.0840543 26.74712,41.7910436 C26.8438846,41.4881243 27.0623098,41.2786287 27.3497855,41.1219789 C27.599213,40.985618 27.8204565,40.956836 28.0863246,41.0700768 C28.3244784,41.1715218 28.5959833,41.1861487 28.8252123,41.3201504 C29.1404021,41.5036949 29.2094527,41.8066142 29.2061645,42.1392592 C29.2052251,42.2010698 29.1901937,42.2614649 29.2235446,42.319029 C29.0469255,42.431798 29.1854964,42.5002144 29.2695783,42.5393768 C29.4969284,42.6455401 29.6984432,42.790394 29.9060645,42.9262831 C30.0108147,42.9946994 30.3804934,42.966861 30.452832,42.8786275 C30.4716213,42.8555075 30.4603477,42.8073802 30.4631661,42.7705769 C30.8793483,42.6276103 31.2584216,42.3681 31.7234558,42.3803678 C31.8004918,42.3822552 31.8761186,42.3784805 31.9409415,42.4195303 C32.2566011,42.6191173 32.6107787,42.5568348 32.9546222,42.5832577 C33.2824948,42.608265 33.609428,42.6606389 33.933073,42.718203 C34.5596948,42.8290847 35.1849075,42.9536496 35.7955585,43.1310602 C36.3315222,43.2872382 36.8764108,43.4132187 37.3973431,43.6236579 C37.5819475,43.6982082 37.7242762,43.808618 37.8722416,43.9246898 C37.9690063,44.0006556 38.0216163,44.1105936 37.9915534,44.2200597 C37.9633696,44.326223 37.8402999,44.3064059 37.7482325,44.3163144 C37.1746903,44.3776532 36.5941021,44.3804843 36.0337124,44.5456272 C35.9829814,44.5607259 35.9228558,44.5465708 35.8669577,44.5456272" id="Fill-6" fill="#FFFFFF"></path>
                        <path d="M18,48.2910594 C17.9669044,48.4533607 17.7962006,48.4419712 17.6609149,48.4609538 C17.3833762,48.5003427 17.1093211,48.4652249 16.8381692,48.4106498 C16.7574623,48.3940401 16.6767554,48.3636679 16.5693398,48.3964129 C16.9751967,48.6531528 17.4304068,48.5587143 17.8728431,48.5553923 C17.5325968,48.7381 17.1662224,48.8686055 16.7963642,48.9896196 C16.6517885,49.0366016 16.5043098,48.9189094 16.5298573,48.7414219 C16.5559854,48.5563414 16.4201191,48.5373588 16.2720597,48.5183762 C15.9782634,48.4808855 15.9358778,48.419192 16.0804535,48.2132306 C16.0880016,48.2027902 16.1065816,48.1904515 16.1036785,48.1828585 C15.9672316,47.8416459 16.2941235,48.0931656 16.3812173,48.0385906 C16.4119904,48.0362178 16.4427635,48.0333704 16.4735366,48.0309975 C16.5077935,48.0808269 16.5594692,48.0808269 16.6163704,48.0637425 C16.6901098,48.0983858 16.7708167,48.0979113 16.850943,48.0941147 C16.8724261,48.1339782 16.9072636,48.136351 16.9502298,48.1187921 C17.264348,48.1667232 17.5790468,48.2146543 17.893165,48.2621109 C17.9158094,48.2977033 17.9512275,48.3010252 17.9924519,48.2877374 L18,48.2910594 Z" id="Fill-8" fill="#FFFFFF"></path>
                        <path d="M29,42.5387473 C29.0086069,42.3420831 29.1267129,42.1911899 29.2285614,42.0503562 C29.3103272,41.9371863 29.4532976,42.0423085 29.5455829,42.098139 C29.6866407,42.1831422 29.8042685,42.3098925 29.9376757,42.4094821 C30.0466967,42.4909644 29.9960115,42.5483038 29.9128113,42.5749616 C29.6517348,42.6589589 29.4370401,42.834498 29.1941338,42.9537036 C29.1214532,42.989415 29.0267771,43.0603349 29.0023908,42.8963642 C28.9837425,42.7771586 29.141536,42.656444 29,42.5387473" id="Fill-10" fill="#FFFFFF"></path>
                        <path d="M29.9991882,42.6997334 C29.997063,42.756765 30.005918,42.8313447 29.99175,42.8671722 C29.9368488,43.0039017 29.6580927,43.0463098 29.5791058,42.9410208 C29.422549,42.7304427 29.2705968,42.5052411 29.0991635,42.3414582 C29.0357616,42.2800396 28.9312723,42.1747506 29.0644518,42 C29.3761487,42.2332445 29.6874913,42.4664889 29.9991882,42.6997334" id="Fill-12" fill="#FFFFFF"></path>
                        <path d="M11.9656419,52.8461466 C12.077446,52.9276121 12.0018275,53.0542328 12.0398687,53.1538534 C11.9081161,53.0770431 11.9837347,52.9504224 11.9656419,52.8461466" id="Fill-14" fill="#FFFFFF"></path>
                        <path d="M17.0570619,48.0252311 C17.011134,48.0419897 16.9703093,48.0415242 16.9429381,47.9926449 C16.9981443,47.9442311 17.033866,47.9614552 17.0570619,48.0252311" id="Fill-16" fill="#FFFFFF"></path>
                        <path d="M18.0396649,48.0211096 C18.0067268,48.0341441 17.9784278,48.0308855 17.9603351,47.9964372 C18.0034794,47.9517475 18.0262113,47.9726958 18.0396649,48.0211096" id="Fill-18" fill="#FFFFFF"></path>
                        <path d="M17.0396649,48.0200474 C17.0053351,48.0372715 16.9770361,48.0349439 16.9603351,47.9958405 C17.0039433,47.9483577 17.0257474,47.971168 17.0396649,48.0200474" id="Fill-20" fill="#FFFFFF"></path>
                        <path d="M15.1915078,47.0031272 C15.2021779,47.0892479 15.2123841,47.1795583 15.0991882,47.1623341 C14.9971264,47.1469721 14.8936728,47.1106617 14.8050645,47.0603859 C14.774446,47.0426962 15.0087243,46.8364721 15.0945491,46.835541 C15.2314047,46.83461 15.1669202,46.9500583 15.1915078,47.0031272" id="Fill-22" fill="#FFFFFF"></path>
                        <path d="M27.9944467,41.9999643 C27.9294982,41.9826392 27.8752199,41.9288401 27.8492405,41.808476 C27.8223333,41.6872001 27.8701168,41.6115166 27.9132611,41.5859848 C28.0250652,41.5212435 28.0566116,41.3917609 28.0315601,41.1802119 C28.0236735,41.1145588 28.0232096,41.0215502 28.0705292,41.0033132 C28.1308384,40.9805169 28.1345498,41.0799085 28.144756,41.1619749 C28.1758384,41.4090861 28.1531065,41.6379602 28.0904776,41.856804 C28.0682096,41.9333993 28.0459415,42.001788 27.9944467,41.9999643" id="Fill-24" fill="#FFFFFF"></path>
                        <path d="M27.0425162,41.1736214 C26.9205059,41.1456903 26.8699389,41.0465352 26.8513822,40.9478455 C26.835609,40.8649834 26.9116915,40.8161041 26.9956605,40.8282076 C27.0731348,40.8389145 27.1738049,40.8580007 27.1459698,40.9678628 C27.1274131,41.0381559 27.1700935,41.1550007 27.0425162,41.1736214" id="Fill-26" fill="#FFFFFF"></path>
                        <path d="M15.1157675,47.977308 C15.11252,47.9922046 15.1078809,48.0350321 15.0930355,48.0741356 C15.0656644,48.1458252 15.0433963,48.2496356 14.9366953,48.2035494 C14.8490149,48.1658425 14.8921592,48.0806528 14.9172108,48.0131528 C14.9274169,47.9852218 14.9413345,47.9586873 14.9520046,47.9307563 C14.9710252,47.8814115 14.8981901,47.7855149 14.9988602,47.7850494 C15.079118,47.7845839 15.1064891,47.8711701 15.1157675,47.977308" id="Fill-28" fill="#FFFFFF"></path>
                        <path d="M15.2237506,47.8199273 C15.2149362,48.0834101 15.0270496,48.2132894 14.8697815,48.1727894 C14.8247815,48.161617 14.7834929,48.1485825 14.776998,48.0973756 C14.7695754,48.0354618 14.8187506,48.0294101 14.8623589,48.0261515 C15.0089568,48.0154446 15.0822558,47.8757894 15.2237506,47.8199273" id="Fill-30" fill="#FFFFFF"></path>
                        <path d="M15.0159848,48.107483 C14.9556755,48.0916554 14.9013972,48.0790864 14.902325,48.0171726 C14.9032528,47.9561898 14.9436137,47.9101036 15.0011394,47.8956726 C15.0614487,47.8807761 15.0957786,47.920345 15.0976343,47.9780692 C15.09949,48.0404485 15.0517064,48.0735002 15.0159848,48.107483" id="Fill-32" fill="#FFFFFF"></path>
                    </g>
                </g>
            </g>
        </g>
    </g>
</svg>