<?xml version="1.0" encoding="UTF-8"?>
<svg width="180px" height="124px" viewBox="0 0 180 124" version="1.1" xmlns="http://www.w3.org/2000/svg" xmlns:xlink="http://www.w3.org/1999/xlink">
    <!-- Generator: Sketch 58 (84663) - https://sketch.com -->
    <title>Group 7 Copy 2</title>
    <desc>Created with Sketch.</desc>
    <defs>
        <polygon id="path-1" points="0.533447415 0.212227338 157.429276 0.212227338 157.429276 93 0.533447415 93"></polygon>
        <polygon id="path-3" points="0.000200489441 0.342107143 157.560842 0.342107143 157.560842 92.4669771 0.000200489441 92.4669771"></polygon>
    </defs>
    <g id="Page-1" stroke="none" stroke-width="1" fill="none" fill-rule="evenodd">
        <g id="Desktop-dashboard-Copy-2" transform="translate(-630.000000, -100.000000)">
            <g id="Group-7-Copy-2" transform="translate(630.000000, 100.000000)">
                <g id="Group-3" transform="translate(22.000000, 31.000000)">
                    <mask id="mask-2" fill="white">
                        <use xlink:href="#path-1"></use>
                    </mask>
                    <g id="Clip-2"></g>
                    <path d="M6.18136185,65.4520619 L0.533447415,92.877695 L151.782027,93.0001338 L157.429276,65.5745007 L114.957785,65.5745007 L128.317928,0.212227338 L100.730524,0.212227338 L91.9275769,45.2476446 C91.8011361,46.2264863 91.6108093,47.1825799 91.3672442,48.1199396 L90.7263886,50.1893568 C87.6585336,58.674436 79.8777611,64.8659612 70.553079,65.5597813 L70.5504171,65.5597813 C69.9741129,65.6032705 69.3978087,65.6487669 68.8108568,65.6487669 L6.18136185,65.4520619 Z" id="Fill-1" fill="#EE4136" mask="url(#mask-2)"></path>
                </g>
                <g id="Group-6">
                    <mask id="mask-4" fill="white">
                        <use xlink:href="#path-3"></use>
                    </mask>
                    <g id="Clip-5"></g>
                    <path d="M151.888996,27.6931414 L157.560842,0.463405714 L5.67137847,0.341841429 L0.000200489441,27.5715771 L42.6516558,27.5715771 L29.2349024,92.4669771 L56.9392017,92.4669771 L65.7794494,47.7532414 C65.9064261,46.7813914 66.0975593,45.8321271 66.3421564,44.9014629 L66.9857275,42.8468271 C70.066582,34.4216914 77.8803238,28.2750557 87.2445172,27.5861914 L87.2445172,27.5855271 L87.2471904,27.5855271 C87.8266049,27.5430129 88.4046828,27.4978414 88.9941218,27.4978414 L151.888996,27.6931414 Z" id="Fill-4" fill="#EE4136" mask="url(#mask-4)"></path>
                </g>
            </g>
        </g>
    </g>
</svg>